<?xml version="1.0" standalone="no"?>
<!DOCTYPE svg PUBLIC "-//W3C//DTD SVG 20010904//EN"
 "http://www.w3.org/TR/2001/REC-SVG-20010904/DTD/svg10.dtd">
<svg version="1.0" xmlns="http://www.w3.org/2000/svg"
 width="200.000000pt" height="200.000000pt" viewBox="0 0 200.000000 200.000000"
 preserveAspectRatio="xMidYMid meet">

<g transform="translate(0.000000,200.000000) scale(0.100000,-0.100000)"
fill="#000000" stroke="none">
<path d="M207 1923 c-4 -3 -7 -26 -7 -50 0 -40 -2 -44 -22 -41 -21 3 -23 -2
-26 -44 -3 -39 -6 -47 -25 -50 -21 -3 -22 -7 -25 -165 l-2 -163 25 0 c23 0 25
-3 25 -50 0 -46 2 -50 24 -50 23 0 25 -5 28 -47 l3 -48 141 -3 141 -3 7 41 c3
23 4 45 1 51 -4 5 5 9 19 9 25 0 26 2 26 70 l0 71 -72 -3 -73 -3 -3 -47 -3
-48 -45 0 -44 0 0 50 c0 47 -2 50 -25 50 l-25 0 0 126 c0 124 0 125 23 122 20
-3 22 2 25 45 l3 47 44 0 44 0 3 -47 3 -48 70 0 70 0 0 70 c0 68 -1 70 -24 67
-14 -2 -21 0 -17 7 4 5 4 28 0 50 l-7 41 -137 0 c-75 0 -140 -3 -143 -7z"/>
<path d="M680 1880 c0 -46 -2 -50 -22 -47 -21 2 -23 -3 -26 -45 -3 -39 -7 -48
-21 -48 -26 0 -31 -26 -31 -172 0 -140 4 -158 31 -158 14 0 18 -9 21 -47 3
-41 6 -48 26 -51 19 -3 22 -9 22 -53 l0 -49 145 0 144 0 7 50 c5 38 11 50 24
50 21 0 32 51 23 105 l-6 35 -67 0 c-75 0 -80 -4 -80 -66 0 -34 0 -34 -45 -34
l-45 0 0 46 c0 37 -4 47 -20 51 -19 5 -20 14 -20 130 0 112 2 124 18 121 14
-2 18 6 20 45 l3 47 45 0 c43 0 44 0 44 -34 0 -62 5 -66 80 -66 l67 0 6 38 c9
54 -5 108 -26 104 -13 -2 -17 4 -17 25 0 15 -3 38 -6 51 -6 22 -9 22 -150 22
l-144 0 0 -50z"/>
<path d="M1116 1914 c-3 -9 -6 -31 -6 -50 0 -30 -3 -34 -19 -29 -24 7 -31 -17
-31 -120 0 -102 6 -124 31 -118 16 5 19 0 19 -33 0 -65 4 -67 129 -62 l111 3
0 -77 0 -78 -71 0 c-46 0 -68 4 -64 10 4 6 4 29 0 50 l-7 40 -68 0 c-74 0 -80
-5 -80 -77 0 -44 9 -63 31 -63 15 0 19 -7 19 -34 0 -68 -5 -66 175 -66 l163 0
7 40 c4 21 4 44 0 50 -4 6 4 10 19 10 29 0 36 22 35 115 0 90 -8 125 -29 125
-13 0 -19 11 -24 45 l-7 45 -114 0 -113 0 -3 38 c-2 20 -3 54 -1 75 l3 37 65
0 c63 0 64 0 64 -27 0 -68 6 -73 80 -73 l68 0 7 39 c3 21 3 55 0 75 -7 32 -10
35 -33 29 -18 -4 -23 -3 -18 6 4 6 5 30 1 51 l-7 40 -163 0 c-139 0 -164 -2
-169 -16z"/>
<path d="M1640 1870 l0 -40 60 0 60 0 0 40 0 40 -60 0 -60 0 0 -40z"/>
<path d="M1700 1665 c0 -10 -10 -15 -30 -15 l-30 0 0 -70 0 -70 30 0 c18 0 30
-5 30 -13 0 -7 -12 -13 -27 -12 -24 0 -28 -4 -31 -32 -3 -31 -1 -33 27 -33 21
0 31 5 31 15 0 12 17 15 95 15 76 0 97 3 101 15 4 9 19 15 35 15 l29 0 0 76 0
75 -32 -3 c-32 -3 -33 -4 -36 -55 -3 -51 -4 -53 -33 -53 l-29 0 0 65 0 65 -35
0 c-24 0 -35 5 -35 15 0 10 -10 15 -30 15 -20 0 -30 -5 -30 -15z m60 -100 c0
-43 -1 -45 -30 -45 -29 0 -30 2 -30 45 0 43 1 45 30 45 29 0 30 -2 30 -45z"/>
<path d="M1640 1325 l0 -35 125 0 c118 0 125 -1 125 -20 0 -19 -7 -20 -125
-20 l-125 0 0 -25 0 -25 125 0 c104 0 125 -2 125 -15 0 -13 -21 -15 -125 -15
l-125 0 0 -35 0 -35 130 0 c109 0 130 2 130 15 0 10 10 15 30 15 28 0 30 2 30
40 0 38 -2 40 -30 40 -16 0 -30 5 -30 10 0 6 14 10 30 10 27 0 30 3 30 30 0
27 -3 30 -30 30 -16 0 -30 5 -30 10 0 6 14 10 30 10 25 0 30 4 30 25 l0 25
-160 0 -160 0 0 -35z"/>
<path d="M800 965 l0 -65 60 0 59 0 3 -62 3 -63 68 -3 67 -3 0 -59 0 -59 -67
-3 -68 -3 -3 -62 -3 -63 -59 0 -60 0 0 -65 0 -66 63 3 62 3 3 63 3 62 64 0 65
0 0 65 0 65 60 0 60 0 0 -65 0 -65 65 0 65 0 0 -65 0 -65 65 0 65 0 0 65 0 65
-65 0 -65 0 0 65 0 65 -60 0 -60 0 0 60 0 60 60 0 60 0 0 65 0 64 63 3 62 3 3
63 3 62 -66 0 -65 0 0 -60 0 -59 -62 -3 -63 -3 -3 -62 -3 -63 -59 0 -59 0 -3
63 -3 62 -62 3 -63 3 0 59 0 60 -65 0 -65 0 0 -65z"/>
<path d="M1843 1023 c-7 -2 -13 -11 -13 -18 0 -8 -13 -15 -32 -17 -33 -3 -33
-3 -36 -65 -3 -62 -3 -63 -32 -63 l-30 0 0 75 0 75 -30 0 -30 0 0 -95 0 -95
29 0 c16 0 31 -6 35 -15 3 -8 17 -15 31 -15 16 0 25 6 25 15 0 10 11 15 35 15
l35 0 0 65 0 65 30 0 30 0 0 -70 0 -70 35 0 35 0 0 90 0 90 -30 0 c-19 0 -30
5 -30 14 0 20 -30 31 -57 19z"/>
<path d="M1897 713 c-4 -3 -7 -18 -7 -32 0 -26 0 -27 -77 -25 -92 2 -113 -2
-113 -22 0 -9 -11 -14 -30 -14 l-30 0 0 -65 0 -65 29 0 c28 0 30 2 33 47 l3
47 93 1 92 1 0 -48 0 -48 35 0 35 0 0 49 c0 44 2 49 20 44 18 -5 20 0 20 37 0
37 -2 42 -20 37 -17 -4 -20 0 -20 29 0 31 -3 34 -28 34 -16 0 -32 -3 -35 -7z"/>
<path d="M1764 385 c-4 -9 -19 -15 -35 -15 -22 0 -29 -5 -29 -20 0 -16 -7 -20
-30 -20 l-30 0 0 -80 0 -80 30 0 30 0 0 65 0 65 30 0 30 0 0 -80 0 -80 65 0
c51 0 65 3 65 15 0 10 11 15 35 15 l35 0 0 80 0 80 -31 0 c-22 0 -32 5 -36 20
-4 14 -14 20 -34 20 -19 0 -29 5 -29 15 0 10 -10 15 -30 15 -18 0 -33 -6 -36
-15z m126 -130 c0 -43 -1 -45 -30 -45 -29 0 -30 2 -30 45 0 43 1 45 30 45 29
0 30 -2 30 -45z"/>
<path d="M800 195 l0 -65 60 0 59 0 3 -62 3 -63 193 -3 192 -2 0 64 0 65 63 3
62 3 3 63 3 62 -66 0 -65 0 0 -60 0 -59 -62 -3 -63 -3 -3 -62 -3 -63 -59 0
-59 0 -3 63 -3 62 -62 3 -63 3 0 59 0 60 -65 0 -65 0 0 -65z"/>
<path d="M1640 40 l0 -40 160 0 160 0 0 41 c0 39 -1 40 -32 37 -25 -2 -34 -8
-36 -25 -3 -22 -8 -23 -98 -23 -94 0 -94 0 -94 25 0 21 -5 25 -30 25 -28 0
-30 -2 -30 -40z"/>
</g>
</svg>
